<mxfile host="65bd71144e">
    <diagram id="97HLYAoYRTmnaLsdLiow" name="Page-1">
        <mxGraphModel dx="1346" dy="551" grid="0" gridSize="10" guides="1" tooltips="1" connect="1" arrows="1" fold="1" page="1" pageScale="1" pageWidth="850" pageHeight="1100" math="0" shadow="0">
            <root>
                <mxCell id="0"/>
                <mxCell id="1" parent="0"/>
                <mxCell id="88" value="" style="rounded=0;whiteSpace=wrap;html=1;dashed=1;dashPattern=8 8;" parent="1" vertex="1">
                    <mxGeometry x="70" y="190" width="740" height="500" as="geometry"/>
                </mxCell>
                <mxCell id="36" value="" style="rounded=0;whiteSpace=wrap;html=1;" parent="1" vertex="1">
                    <mxGeometry x="260" y="240" width="540" height="280" as="geometry"/>
                </mxCell>
                <mxCell id="91" value="LocalDevice" style="rounded=0;whiteSpace=wrap;html=1;align=left;verticalAlign=top;" parent="1" vertex="1">
                    <mxGeometry x="560" y="370" width="220" height="80" as="geometry"/>
                </mxCell>
                <mxCell id="77" value="" style="rounded=0;whiteSpace=wrap;html=1;dashed=1;" parent="1" vertex="1">
                    <mxGeometry x="520" y="540" width="280" height="110" as="geometry"/>
                </mxCell>
                <mxCell id="74" value="" style="rounded=0;whiteSpace=wrap;html=1;dashed=1;" parent="1" vertex="1">
                    <mxGeometry x="80" y="240" width="140" height="280" as="geometry"/>
                </mxCell>
                <mxCell id="3" value="MainProcess" style="rounded=0;whiteSpace=wrap;html=1;align=left;verticalAlign=top;" parent="1" vertex="1">
                    <mxGeometry x="390" y="250" width="150" height="260" as="geometry"/>
                </mxCell>
                <mxCell id="4" value="LowerDevice&lt;br&gt;" style="rounded=0;whiteSpace=wrap;html=1;align=left;verticalAlign=top;" parent="1" vertex="1">
                    <mxGeometry x="560" y="250" width="150" height="110" as="geometry"/>
                </mxCell>
                <mxCell id="7" value="Server" style="rounded=0;whiteSpace=wrap;html=1;" parent="1" vertex="1">
                    <mxGeometry x="470" y="350" width="70" height="40" as="geometry"/>
                </mxCell>
                <mxCell id="9" value="Client" style="rounded=0;whiteSpace=wrap;html=1;" parent="1" vertex="1">
                    <mxGeometry x="560" y="310" width="50" height="40" as="geometry"/>
                </mxCell>
                <mxCell id="10" value="PC Manage" style="rounded=0;whiteSpace=wrap;html=1;align=center;verticalAlign=bottom;" parent="1" vertex="1">
                    <mxGeometry x="570" y="570" width="100" height="70" as="geometry"/>
                </mxCell>
                <mxCell id="11" value="Serial" style="rounded=0;whiteSpace=wrap;html=1;" parent="1" vertex="1">
                    <mxGeometry x="595" y="570" width="50" height="40" as="geometry"/>
                </mxCell>
                <mxCell id="92" style="edgeStyle=none;html=1;exitX=0.5;exitY=0;exitDx=0;exitDy=0;entryX=0.5;entryY=1;entryDx=0;entryDy=0;startArrow=classicThin;startFill=1;" parent="1" source="12" target="90" edge="1">
                    <mxGeometry relative="1" as="geometry"/>
                </mxCell>
                <mxCell id="12" value="ser2net" style="rounded=0;whiteSpace=wrap;html=1;" parent="1" vertex="1">
                    <mxGeometry x="580" y="465" width="80" height="40" as="geometry"/>
                </mxCell>
                <mxCell id="14" value="" style="endArrow=classic;html=1;exitX=0.5;exitY=0;exitDx=0;exitDy=0;entryX=0.5;entryY=1;entryDx=0;entryDy=0;startArrow=classic;startFill=1;" parent="1" source="10" target="12" edge="1">
                    <mxGeometry width="50" height="50" relative="1" as="geometry">
                        <mxPoint x="640" y="570" as="sourcePoint"/>
                        <mxPoint x="690" y="520" as="targetPoint"/>
                    </mxGeometry>
                </mxCell>
                <mxCell id="16" value="" style="endArrow=classic;html=1;exitX=0;exitY=0.75;exitDx=0;exitDy=0;entryX=1;entryY=0.5;entryDx=0;entryDy=0;endFill=1;startArrow=classic;startFill=1;" parent="1" source="4" target="7" edge="1">
                    <mxGeometry width="50" height="50" relative="1" as="geometry">
                        <mxPoint x="640" y="540" as="sourcePoint"/>
                        <mxPoint x="690" y="490" as="targetPoint"/>
                    </mxGeometry>
                </mxCell>
                <mxCell id="19" value="Mqtt Server(mosquitto)" style="rounded=0;whiteSpace=wrap;html=1;" parent="1" vertex="1">
                    <mxGeometry x="270" y="335" width="100" height="90" as="geometry"/>
                </mxCell>
                <mxCell id="21" value="Data&lt;br&gt;&amp;nbsp;publisher" style="rounded=1;whiteSpace=wrap;html=1;" parent="1" vertex="1">
                    <mxGeometry x="390" y="305" width="60" height="30" as="geometry"/>
                </mxCell>
                <mxCell id="22" value="Data subscribe" style="rounded=1;whiteSpace=wrap;html=1;" parent="1" vertex="1">
                    <mxGeometry x="390" y="400" width="60" height="30" as="geometry"/>
                </mxCell>
                <mxCell id="52" value="" style="edgeStyle=none;html=1;startArrow=classic;startFill=1;endArrow=classic;endFill=1;" parent="1" source="24" target="19" edge="1">
                    <mxGeometry relative="1" as="geometry"/>
                </mxCell>
                <mxCell id="24" value="server&lt;br&gt;(node/rust/c++ï¼‰" style="rounded=0;whiteSpace=wrap;html=1;verticalAlign=top;align=left;" parent="1" vertex="1">
                    <mxGeometry x="270" y="250" width="100" height="60" as="geometry"/>
                </mxCell>
                <mxCell id="30" value="HardWare&lt;br&gt;Driver" style="rounded=0;whiteSpace=wrap;html=1;" parent="1" vertex="1">
                    <mxGeometry x="640" y="260" width="60" height="90" as="geometry"/>
                </mxCell>
                <mxCell id="89" value="" style="edgeStyle=none;html=1;startArrow=classic;startFill=1;" parent="1" source="32" target="43" edge="1">
                    <mxGeometry relative="1" as="geometry"/>
                </mxCell>
                <mxCell id="94" style="edgeStyle=none;html=1;exitX=0.5;exitY=0;exitDx=0;exitDy=0;entryX=0.5;entryY=1;entryDx=0;entryDy=0;startArrow=classicThin;startFill=1;" parent="1" source="32" target="90" edge="1">
                    <mxGeometry relative="1" as="geometry"/>
                </mxCell>
                <mxCell id="32" value="CanSocket" style="rounded=0;whiteSpace=wrap;html=1;" parent="1" vertex="1">
                    <mxGeometry x="705" y="470" width="80" height="40" as="geometry"/>
                </mxCell>
                <mxCell id="37" value="LED" style="rounded=0;whiteSpace=wrap;html=1;" parent="1" vertex="1">
                    <mxGeometry x="720" y="250" width="60" height="20" as="geometry"/>
                </mxCell>
                <mxCell id="38" value="BEEP" style="rounded=0;whiteSpace=wrap;html=1;" parent="1" vertex="1">
                    <mxGeometry x="720" y="280" width="60" height="20" as="geometry"/>
                </mxCell>
                <mxCell id="39" value="SPI" style="rounded=0;whiteSpace=wrap;html=1;" parent="1" vertex="1">
                    <mxGeometry x="720" y="340" width="60" height="20" as="geometry"/>
                </mxCell>
                <mxCell id="40" value="..." style="text;html=1;strokeColor=none;fillColor=none;align=center;verticalAlign=middle;whiteSpace=wrap;rounded=0;" parent="1" vertex="1">
                    <mxGeometry x="720" y="300" width="60" height="30" as="geometry"/>
                </mxCell>
                <mxCell id="42" value="LowerDevice" style="rounded=0;whiteSpace=wrap;html=1;align=center;verticalAlign=bottom;" parent="1" vertex="1">
                    <mxGeometry x="700" y="570" width="90" height="70" as="geometry"/>
                </mxCell>
                <mxCell id="43" value="CAN" style="rounded=0;whiteSpace=wrap;html=1;" parent="1" vertex="1">
                    <mxGeometry x="720" y="570" width="50" height="40" as="geometry"/>
                </mxCell>
                <mxCell id="47" value="" style="endArrow=classic;html=1;exitX=0;exitY=0.5;exitDx=0;exitDy=0;entryX=1;entryY=0.5;entryDx=0;entryDy=0;" parent="1" source="21" target="19" edge="1">
                    <mxGeometry width="50" height="50" relative="1" as="geometry">
                        <mxPoint x="480" y="460" as="sourcePoint"/>
                        <mxPoint x="530" y="410" as="targetPoint"/>
                    </mxGeometry>
                </mxCell>
                <mxCell id="48" value="" style="endArrow=classic;html=1;exitX=0;exitY=0.5;exitDx=0;exitDy=0;entryX=1;entryY=0.5;entryDx=0;entryDy=0;" parent="1" source="22" target="19" edge="1">
                    <mxGeometry width="50" height="50" relative="1" as="geometry">
                        <mxPoint x="480" y="460" as="sourcePoint"/>
                        <mxPoint x="370" y="440" as="targetPoint"/>
                    </mxGeometry>
                </mxCell>
                <mxCell id="49" value="Web" style="rounded=0;whiteSpace=wrap;html=1;" parent="1" vertex="1">
                    <mxGeometry x="320" y="290" width="50" height="20" as="geometry"/>
                </mxCell>
                <mxCell id="53" value="GUI&lt;br&gt;(LVGL/QT)" style="rounded=0;whiteSpace=wrap;html=1;verticalAlign=top;align=left;" parent="1" vertex="1">
                    <mxGeometry x="270" y="450" width="100" height="60" as="geometry"/>
                </mxCell>
                <mxCell id="58" value="" style="endArrow=classic;startArrow=classic;html=1;entryX=0.5;entryY=0;entryDx=0;entryDy=0;" parent="1" source="19" target="53" edge="1">
                    <mxGeometry width="50" height="50" relative="1" as="geometry">
                        <mxPoint x="420" y="370" as="sourcePoint"/>
                        <mxPoint x="470" y="320" as="targetPoint"/>
                    </mxGeometry>
                </mxCell>
                <mxCell id="60" value="SocketServer/asio" style="rounded=1;whiteSpace=wrap;html=1;" parent="1" vertex="1">
                    <mxGeometry x="390" y="465" width="110" height="30" as="geometry"/>
                </mxCell>
                <mxCell id="65" value="" style="edgeStyle=none;html=1;startArrow=classic;startFill=1;endArrow=classic;endFill=1;entryX=1;entryY=0.5;entryDx=0;entryDy=0;" parent="1" source="64" target="19" edge="1">
                    <mxGeometry relative="1" as="geometry"/>
                </mxCell>
                <mxCell id="64" value="Logger&lt;br&gt;publisher" style="rounded=1;whiteSpace=wrap;html=1;" parent="1" vertex="1">
                    <mxGeometry x="390" y="355" width="60" height="30" as="geometry"/>
                </mxCell>
                <mxCell id="66" value="" style="endArrow=none;dashed=1;html=1;dashPattern=1 3;strokeWidth=2;entryX=0;entryY=0.5;entryDx=0;entryDy=0;exitX=1;exitY=0.5;exitDx=0;exitDy=0;" parent="1" source="53" target="60" edge="1">
                    <mxGeometry width="50" height="50" relative="1" as="geometry">
                        <mxPoint x="420" y="430" as="sourcePoint"/>
                        <mxPoint x="470" y="380" as="targetPoint"/>
                    </mxGeometry>
                </mxCell>
                <mxCell id="68" value="Brower" style="rounded=0;whiteSpace=wrap;html=1;" parent="1" vertex="1">
                    <mxGeometry x="110" y="270" width="80" height="60" as="geometry"/>
                </mxCell>
                <mxCell id="69" value="PC Winform" style="rounded=0;whiteSpace=wrap;html=1;" parent="1" vertex="1">
                    <mxGeometry x="110" y="360" width="80" height="60" as="geometry"/>
                </mxCell>
                <mxCell id="70" value="Android/IOS Device" style="rounded=0;whiteSpace=wrap;html=1;" parent="1" vertex="1">
                    <mxGeometry x="110" y="445" width="80" height="60" as="geometry"/>
                </mxCell>
                <mxCell id="71" value="" style="endArrow=classic;startArrow=classic;html=1;exitX=1;exitY=0.5;exitDx=0;exitDy=0;entryX=0;entryY=0.5;entryDx=0;entryDy=0;" parent="1" source="68" target="24" edge="1">
                    <mxGeometry width="50" height="50" relative="1" as="geometry">
                        <mxPoint x="260" y="400" as="sourcePoint"/>
                        <mxPoint x="310" y="350" as="targetPoint"/>
                    </mxGeometry>
                </mxCell>
                <mxCell id="72" value="" style="endArrow=classic;startArrow=classic;html=1;exitX=1;exitY=0.5;exitDx=0;exitDy=0;entryX=0;entryY=0.5;entryDx=0;entryDy=0;" parent="1" source="69" target="19" edge="1">
                    <mxGeometry width="50" height="50" relative="1" as="geometry">
                        <mxPoint x="260" y="400" as="sourcePoint"/>
                        <mxPoint x="310" y="350" as="targetPoint"/>
                    </mxGeometry>
                </mxCell>
                <mxCell id="73" value="" style="endArrow=classic;startArrow=classic;html=1;exitX=1;exitY=0.5;exitDx=0;exitDy=0;" parent="1" source="70" edge="1">
                    <mxGeometry width="50" height="50" relative="1" as="geometry">
                        <mxPoint x="260" y="400" as="sourcePoint"/>
                        <mxPoint x="270" y="380" as="targetPoint"/>
                    </mxGeometry>
                </mxCell>
                <mxCell id="75" value="Remote&amp;nbsp; Manage" style="text;html=1;strokeColor=none;fillColor=none;align=center;verticalAlign=middle;whiteSpace=wrap;rounded=0;" parent="1" vertex="1">
                    <mxGeometry x="80" y="240" width="110" height="20" as="geometry"/>
                </mxCell>
                <mxCell id="78" value="Lower Manage" style="text;html=1;strokeColor=none;fillColor=none;align=center;verticalAlign=middle;whiteSpace=wrap;rounded=0;" parent="1" vertex="1">
                    <mxGeometry x="520" y="540" width="100" height="30" as="geometry"/>
                </mxCell>
                <mxCell id="82" value="Embed Linux&amp;nbsp; Manage System" style="text;html=1;strokeColor=none;fillColor=none;align=center;verticalAlign=middle;whiteSpace=wrap;rounded=0;dashed=1;" parent="1" vertex="1">
                    <mxGeometry x="80" y="190" width="180" height="40" as="geometry"/>
                </mxCell>
                <mxCell id="87" value="Linux Platform support functional:&lt;br&gt;1. ssh service.&lt;br&gt;2. vnc viewer remote service.&lt;br&gt;3. node run environment.&lt;br&gt;4.support busybox rootfs and debain rootfs.&lt;br&gt;5.if used debug mode, local manage will used mock data can test in linux or wsl/linux&lt;br&gt;" style="text;html=1;strokeColor=none;fillColor=none;align=left;verticalAlign=top;whiteSpace=wrap;rounded=0;dashed=1;" parent="1" vertex="1">
                    <mxGeometry x="260" y="530" width="190" height="140" as="geometry"/>
                </mxCell>
                <mxCell id="96" style="edgeStyle=none;html=1;exitX=0;exitY=0.5;exitDx=0;exitDy=0;entryX=1;entryY=0.5;entryDx=0;entryDy=0;startArrow=classicThin;startFill=1;" parent="1" source="90" target="7" edge="1">
                    <mxGeometry relative="1" as="geometry"/>
                </mxCell>
                <mxCell id="90" value="client" style="rounded=0;whiteSpace=wrap;html=1;" parent="1" vertex="1">
                    <mxGeometry x="580" y="400" width="80" height="35" as="geometry"/>
                </mxCell>
                <mxCell id="97" value="DateManage" style="rounded=0;whiteSpace=wrap;html=1;" parent="1" vertex="1">
                    <mxGeometry x="680" y="400" width="80" height="35" as="geometry"/>
                </mxCell>
            </root>
        </mxGraphModel>
    </diagram>
</mxfile>